<?xml version="1.0" encoding="UTF-8" standalone="no"?><!DOCTYPE svg PUBLIC "-//W3C//DTD SVG 1.1//EN" "http://www.w3.org/Graphics/SVG/1.1/DTD/svg11.dtd"><svg width="100%" height="100%" viewBox="0 0 120 89" version="1.1" xmlns="http://www.w3.org/2000/svg" xmlns:xlink="http://www.w3.org/1999/xlink" xml:space="preserve" xmlns:serif="http://www.serif.com/" style="fill-rule:evenodd;clip-rule:evenodd;stroke-linejoin:round;stroke-miterlimit:2;"><rect id="Artboard8" x="0" y="-0" width="120" height="88.8" style="fill:none;"/><path d="M40.114,62.915c-0.122,-0.158 -0.293,-0.29 -0.514,-0.396c-0.221,-0.106 -0.444,-0.159 -0.669,-0.159c-0.133,0 -0.266,0.017 -0.4,0.05c-0.133,0.034 -0.254,0.085 -0.363,0.155c-0.109,0.069 -0.199,0.16 -0.269,0.273c-0.069,0.112 -0.104,0.247 -0.104,0.404c-0,0.146 0.03,0.27 0.091,0.373c0.06,0.103 0.144,0.191 0.25,0.264c0.106,0.072 0.235,0.136 0.386,0.191c0.152,0.054 0.319,0.109 0.5,0.163c0.206,0.067 0.42,0.143 0.641,0.228c0.222,0.085 0.425,0.197 0.61,0.336c0.185,0.14 0.336,0.315 0.454,0.527c0.119,0.213 0.178,0.476 0.178,0.792c-0,0.345 -0.064,0.647 -0.191,0.904c-0.128,0.258 -0.297,0.472 -0.51,0.641c-0.212,0.17 -0.46,0.297 -0.745,0.382c-0.285,0.085 -0.585,0.128 -0.9,0.128c-0.419,-0 -0.828,-0.078 -1.228,-0.232c-0.4,-0.155 -0.727,-0.384 -0.982,-0.687l0.818,-0.764c0.158,0.219 0.369,0.391 0.632,0.519c0.264,0.127 0.523,0.191 0.778,0.191c0.133,-0 0.27,-0.017 0.409,-0.05c0.139,-0.034 0.265,-0.09 0.377,-0.169c0.113,-0.078 0.203,-0.177 0.273,-0.295c0.07,-0.118 0.105,-0.265 0.105,-0.441c-0,-0.17 -0.04,-0.311 -0.118,-0.423c-0.079,-0.112 -0.185,-0.209 -0.319,-0.291c-0.133,-0.082 -0.291,-0.153 -0.473,-0.214l-0.572,-0.191c-0.194,-0.06 -0.388,-0.133 -0.582,-0.218c-0.194,-0.085 -0.369,-0.197 -0.523,-0.336c-0.155,-0.14 -0.281,-0.311 -0.378,-0.514c-0.097,-0.203 -0.145,-0.456 -0.145,-0.759c-0,-0.328 0.068,-0.609 0.205,-0.846c0.136,-0.236 0.315,-0.432 0.536,-0.586c0.221,-0.155 0.473,-0.27 0.755,-0.346c0.282,-0.076 0.568,-0.114 0.859,-0.114c0.327,0 0.659,0.058 0.996,0.173c0.336,0.115 0.629,0.288 0.877,0.518l-0.745,0.819Zm5.774,-1.346l0.991,0l2.773,6.438l-1.309,-0l-0.6,-1.473l-2.792,-0l-0.582,1.473l-1.282,-0l2.801,-6.438Zm1.455,3.983l-0.992,-2.619l-1.009,2.619l2.001,-0Zm5.519,-2.983l-1.973,0l-0,-1l5.092,0l-0,1l-1.973,0l-0,5.438l-1.146,-0l-0,-5.438Zm5.683,-1l1.146,0l-0,2.601l3.01,-0l-0,-2.601l1.145,0l0,6.438l-1.145,-0l-0,-2.855l-3.01,-0l-0,2.855l-1.146,-0l0,-6.438Zm8.229,3.201c0,-0.515 0.087,-0.981 0.259,-1.396c0.173,-0.415 0.413,-0.768 0.719,-1.059c0.306,-0.291 0.67,-0.516 1.091,-0.673c0.421,-0.158 0.88,-0.237 1.378,-0.237c0.503,0 0.966,0.079 1.391,0.237c0.424,0.157 0.791,0.382 1.1,0.673c0.309,0.291 0.55,0.644 0.723,1.059c0.173,0.415 0.259,0.881 0.259,1.396c0,0.503 -0.086,0.962 -0.259,1.377c-0.173,0.416 -0.414,0.773 -0.723,1.073c-0.309,0.3 -0.676,0.534 -1.1,0.701c-0.425,0.166 -0.888,0.25 -1.391,0.25c-0.498,-0 -0.957,-0.084 -1.378,-0.25c-0.421,-0.167 -0.785,-0.401 -1.091,-0.701c-0.306,-0.3 -0.546,-0.657 -0.719,-1.073c-0.172,-0.415 -0.259,-0.874 -0.259,-1.377Zm1.246,-0c0,0.345 0.053,0.662 0.159,0.95c0.106,0.288 0.258,0.538 0.455,0.75c0.197,0.212 0.43,0.378 0.7,0.496c0.27,0.118 0.568,0.177 0.896,0.177c0.327,0 0.627,-0.059 0.9,-0.177c0.273,-0.118 0.508,-0.284 0.705,-0.496c0.197,-0.212 0.348,-0.462 0.454,-0.75c0.106,-0.288 0.159,-0.605 0.159,-0.95c0,-0.334 -0.053,-0.643 -0.159,-0.928c-0.106,-0.285 -0.256,-0.533 -0.45,-0.745c-0.194,-0.212 -0.427,-0.379 -0.7,-0.5c-0.273,-0.122 -0.576,-0.182 -0.909,-0.182c-0.334,-0 -0.635,0.06 -0.905,0.182c-0.27,0.121 -0.502,0.288 -0.696,0.5c-0.194,0.212 -0.344,0.46 -0.45,0.745c-0.106,0.285 -0.159,0.594 -0.159,0.928Zm8.602,-3.201l1.519,0l2.991,4.819l0.018,0l0,-4.819l1.146,0l0,6.438l-1.455,-0l-3.055,-4.974l-0.018,0l-0,4.974l-1.146,-0l0,-6.438Zm-44.938,11.442l2.51,0c0.242,0 0.482,0.029 0.718,0.087c0.237,0.057 0.447,0.151 0.632,0.282c0.185,0.13 0.335,0.298 0.45,0.504c0.116,0.206 0.173,0.455 0.173,0.746c0,0.364 -0.103,0.664 -0.309,0.9c-0.206,0.236 -0.476,0.406 -0.809,0.509l-0,0.018c0.406,0.055 0.739,0.213 1,0.473c0.261,0.261 0.391,0.61 0.391,1.046c-0,0.352 -0.07,0.647 -0.209,0.887c-0.14,0.239 -0.323,0.431 -0.55,0.577c-0.228,0.145 -0.488,0.25 -0.782,0.314c-0.294,0.063 -0.593,0.095 -0.896,0.095l-2.319,0l0,-6.438Zm1.146,2.619l1.018,0c0.382,0 0.673,-0.076 0.873,-0.227c0.2,-0.152 0.3,-0.367 0.3,-0.646c0,-0.291 -0.103,-0.497 -0.309,-0.618c-0.206,-0.121 -0.527,-0.182 -0.964,-0.182l-0.918,-0l0,1.673Zm0,2.855l1.028,0c0.145,0 0.303,-0.01 0.472,-0.032c0.17,-0.021 0.326,-0.065 0.469,-0.131c0.142,-0.067 0.26,-0.164 0.354,-0.291c0.094,-0.128 0.141,-0.297 0.141,-0.51c0,-0.339 -0.115,-0.575 -0.345,-0.709c-0.231,-0.133 -0.579,-0.2 -1.046,-0.2l-1.073,0l0,1.873Zm8.575,-5.474l0.991,0l2.773,6.438l-1.309,0l-0.6,-1.473l-2.792,0l-0.582,1.473l-1.282,0l2.801,-6.438Zm1.455,3.983l-0.991,-2.619l-1.01,2.619l2.001,0Zm4.764,-3.983l1.519,0l2.992,4.82l0.018,-0l-0,-4.82l1.145,0l0,6.438l-1.454,0l-3.056,-4.974l-0.018,0l0,4.974l-1.146,0l0,-6.438Zm14.549,6.102c-0.327,0.157 -0.686,0.28 -1.077,0.368c-0.391,0.088 -0.841,0.132 -1.351,0.132c-0.521,-0 -0.997,-0.084 -1.427,-0.25c-0.431,-0.167 -0.8,-0.4 -1.11,-0.7c-0.309,-0.3 -0.55,-0.658 -0.722,-1.073c-0.173,-0.416 -0.26,-0.875 -0.26,-1.378c0,-0.515 0.09,-0.981 0.269,-1.396c0.178,-0.415 0.424,-0.768 0.736,-1.059c0.312,-0.291 0.681,-0.515 1.105,-0.673c0.424,-0.158 0.885,-0.236 1.382,-0.236c0.515,-0 0.987,0.074 1.414,0.222c0.427,0.149 0.771,0.344 1.032,0.587l-0.791,0.855c-0.164,-0.182 -0.392,-0.337 -0.686,-0.464c-0.294,-0.127 -0.614,-0.191 -0.96,-0.191c-0.339,-0 -0.647,0.061 -0.923,0.182c-0.276,0.121 -0.51,0.288 -0.704,0.5c-0.194,0.212 -0.344,0.461 -0.451,0.746c-0.106,0.284 -0.159,0.594 -0.159,0.927c0,0.346 0.053,0.662 0.159,0.95c0.107,0.288 0.258,0.538 0.455,0.75c0.197,0.213 0.437,0.378 0.718,0.496c0.282,0.118 0.602,0.177 0.96,0.177c0.491,0 0.918,-0.075 1.282,-0.227l-0,-1.637l-1.355,0l0,-0.945l2.464,-0l0,3.337Zm3.21,-6.102l1.146,0l-0,2.783l0.027,-0l2.692,-2.783l1.545,0l-3.009,2.974l3.209,3.464l-1.609,0l-2.828,-3.228l-0.027,0l-0,3.228l-1.146,0l0,-6.438Zm7.475,3.201c-0,-0.515 0.086,-0.981 0.259,-1.396c0.172,-0.415 0.412,-0.768 0.718,-1.059c0.306,-0.291 0.67,-0.515 1.091,-0.673c0.422,-0.158 0.881,-0.236 1.378,-0.236c0.503,-0 0.967,0.078 1.391,0.236c0.424,0.158 0.791,0.382 1.1,0.673c0.309,0.291 0.55,0.644 0.723,1.059c0.173,0.415 0.259,0.881 0.259,1.396c0,0.503 -0.086,0.962 -0.259,1.378c-0.173,0.415 -0.414,0.773 -0.723,1.073c-0.309,0.3 -0.676,0.533 -1.1,0.7c-0.424,0.166 -0.888,0.25 -1.391,0.25c-0.497,-0 -0.956,-0.084 -1.378,-0.25c-0.421,-0.167 -0.785,-0.4 -1.091,-0.7c-0.306,-0.3 -0.546,-0.658 -0.718,-1.073c-0.173,-0.416 -0.259,-0.875 -0.259,-1.378Zm1.245,0c0,0.346 0.053,0.662 0.159,0.95c0.107,0.288 0.258,0.538 0.455,0.75c0.197,0.213 0.43,0.378 0.7,0.496c0.27,0.118 0.569,0.177 0.896,0.177c0.327,0 0.627,-0.059 0.9,-0.177c0.273,-0.118 0.508,-0.283 0.705,-0.496c0.197,-0.212 0.348,-0.462 0.454,-0.75c0.107,-0.288 0.16,-0.604 0.16,-0.95c-0,-0.333 -0.053,-0.643 -0.16,-0.927c-0.106,-0.285 -0.256,-0.534 -0.45,-0.746c-0.194,-0.212 -0.427,-0.379 -0.7,-0.5c-0.273,-0.121 -0.576,-0.182 -0.909,-0.182c-0.334,-0 -0.635,0.061 -0.905,0.182c-0.27,0.121 -0.501,0.288 -0.695,0.5c-0.194,0.212 -0.344,0.461 -0.451,0.746c-0.106,0.284 -0.159,0.594 -0.159,0.927Zm8.602,-3.201l1.146,0l0,2.783l0.027,-0l2.692,-2.783l1.546,0l-3.01,2.974l3.21,3.464l-1.61,0l-2.828,-3.228l-0.027,0l0,3.228l-1.146,0l0,-6.438Z" style="fill:#efefef;"/><path d="M114.149,56.104l-108.298,-0l0,-46.917l108.298,0l-0,46.917Zm-35.573,-45.339l-0,43.761l33.995,-0l-0,-43.761l-33.995,0Zm31.015,7.026c0,0.235 -0.25,0.353 -0.75,0.353c-1.619,0.029 -2.62,0.309 -3.003,0.839c-0.353,0.323 -1.619,2.825 -3.797,7.505c-0.971,2.09 -1.883,3.93 -2.737,5.519c-0.589,1.089 -0.927,1.833 -1.016,2.23c-0.088,0.397 -0.132,1.258 -0.132,2.583l0,8.345c0,0.971 0.125,1.545 0.375,1.721c0.25,0.177 1.126,0.309 2.627,0.398c0.795,0.059 1.192,0.206 1.192,0.441c0,0.236 -0.206,0.354 -0.618,0.354l-0.53,-0l-6.181,-0.133c-1.736,0 -3.164,0.029 -4.282,0.088c-0.177,0.03 -0.383,0.045 -0.619,0.045c-0.412,-0 -0.618,-0.133 -0.618,-0.398c0,-0.265 0.339,-0.412 1.016,-0.441c1.619,-0.059 2.575,-0.206 2.87,-0.442c0.294,-0.235 0.441,-0.942 0.441,-2.119l0,-9.316c-0.294,-0.648 -1.148,-2.37 -2.561,-5.166l-4.415,-8.742c-0.441,-0.853 -0.971,-1.81 -1.589,-2.87c-0.324,-0.294 -1.023,-0.441 -2.097,-0.441c-1.075,-0 -1.612,-0.162 -1.612,-0.486c0,-0.235 0.235,-0.353 0.706,-0.353c0.619,-0 1.855,0.029 3.709,0.088c1.06,0.03 1.825,0.044 2.296,0.044l5.122,-0.044c0.206,-0.029 0.441,-0.044 0.706,-0.044c0.53,-0 0.795,0.147 0.795,0.442c-0,0.264 -0.501,0.397 -1.501,0.397c-1.825,-0 -2.738,0.324 -2.738,0.971c0,0.501 0.927,2.517 2.782,6.049l4.018,7.638c0.735,-1.324 1.574,-2.958 2.516,-4.901l2.605,-5.254c0.972,-1.883 1.457,-3.12 1.457,-3.708c0,-0.383 -0.25,-0.604 -0.75,-0.663c-1.031,-0.147 -1.722,-0.206 -2.076,-0.176c-0.647,0.029 -0.971,-0.118 -0.971,-0.442c0,-0.235 0.28,-0.353 0.839,-0.353l2.561,0.044l1.457,-0.044c3.002,-0.088 4.503,0.059 4.503,0.442Zm-66.589,-7.026l0,43.761l33.996,-0l-0,-43.761l-33.996,0Zm29.625,35.901c0,1.236 -1.03,1.854 -3.09,1.854c-2.296,0 -4.092,-0.957 -5.387,-2.87c-0.559,-0.824 -0.92,-1.619 -1.081,-2.384c-0.162,-0.765 -0.405,-2.708 -0.729,-5.828c-0.177,-1.884 -0.78,-3.216 -1.81,-3.996c-1.03,-0.78 -2.708,-1.199 -5.033,-1.258l-0,13.908c-0,0.588 0.47,0.956 1.412,1.103c0.265,0.03 0.942,0.059 2.031,0.089c0.383,-0 0.574,0.118 0.574,0.353c0,0.265 -0.25,0.397 -0.75,0.397l-0.53,0c-0.265,-0.029 -1.545,-0.044 -3.841,-0.044c-0.442,0 -1.192,0.015 -2.252,0.044l-3.753,0c-0.647,0 -0.971,-0.132 -0.971,-0.397c-0,-0.206 0.427,-0.324 1.28,-0.353c1.384,-0.03 2.134,-0.206 2.252,-0.53c0.118,-0.147 0.177,-0.721 0.177,-1.722l-0,-24.372c-0,-1.177 -0.126,-1.883 -0.376,-2.119c-0.25,-0.235 -1.008,-0.368 -2.274,-0.397c-0.735,-0 -1.103,-0.133 -1.103,-0.398c-0,-0.294 0.235,-0.441 0.706,-0.441c0.088,-0 0.221,0.015 0.397,0.044l5.873,0.132c0.588,0 1.412,-0.014 2.472,-0.044c1.177,-0.059 2.002,-0.088 2.473,-0.088c2.737,-0 4.908,0.611 6.512,1.832c1.604,1.222 2.406,2.878 2.406,4.967c0,2.061 -0.824,3.761 -2.472,5.1c-1.649,1.339 -3.886,2.126 -6.711,2.362c-0.265,0.029 -0.412,0.074 -0.442,0.132c0,0.118 0.147,0.177 0.442,0.177c3.09,0.53 5.217,1.612 6.38,3.245c1.162,1.634 1.935,4.585 2.318,8.853c0.235,2.413 1.059,3.62 2.472,3.62c0.442,0 0.662,-0.088 0.662,-0.265c0,-0.029 -0.014,-0.059 -0.044,-0.088c-0.147,-0.324 -0.221,-0.589 -0.221,-0.795c0,-0.618 0.324,-0.927 0.972,-0.927c0.706,-0 1.059,0.368 1.059,1.104Zm-9.139,-22.12c-0,-4.209 -1.825,-6.314 -5.475,-6.314c-0.971,0 -1.633,0.132 -1.987,0.397c-0.353,0.265 -0.529,0.736 -0.529,1.413l-0,11.215c2.825,0.029 4.864,-0.486 6.115,-1.546c1.25,-1.059 1.876,-2.781 1.876,-5.165Zm-22.064,-13.781l-33.995,0l0,43.761l33.995,-0l0,-43.761Zm-9.624,6.981c0,0.236 -0.309,0.354 -0.927,0.354c-1.119,-0 -1.81,0.036 -2.075,0.11c-0.265,0.074 -0.42,0.199 -0.464,0.375c-0.044,0.177 -0.066,0.751 -0.066,1.722l0,8.871l0.044,4.106c0.03,2.031 0.03,3.694 0,4.989c-0.059,1.825 -0.191,3.193 -0.397,4.106c-0.353,1.53 -1.222,2.848 -2.605,3.951c-1.384,1.104 -2.855,1.656 -4.415,1.656c-1.148,0 -2.075,-0.302 -2.782,-0.905c-0.706,-0.603 -1.059,-1.391 -1.059,-2.362c-0,-1.678 0.824,-2.517 2.472,-2.517c0.677,0 1.244,0.206 1.7,0.618c0.456,0.412 0.684,0.942 0.684,1.59c0,0.559 -0.191,1.059 -0.574,1.501c-0.265,0.324 -0.397,0.574 -0.397,0.751c-0,0.264 0.221,0.397 0.662,0.397c0.942,-0 1.604,-0.574 1.987,-1.722c0.206,-0.618 0.309,-2.428 0.309,-5.431l0,-19.908c0,-0.942 -0.28,-1.53 -0.839,-1.766c-0.265,-0.088 -0.971,-0.132 -2.119,-0.132c-0.53,-0 -0.861,-0.03 -0.994,-0.089c-0.132,-0.059 -0.198,-0.147 -0.198,-0.265c-0,-0.294 0.235,-0.441 0.706,-0.441c0.089,-0 0.486,0.015 1.192,0.044c0.913,0.029 1.663,0.044 2.252,0.044l6.49,-0.088c0.942,-0 1.413,0.147 1.413,0.441Z" style="fill:#efefef;"/></svg>